<?xml version="1.0" standalone="no"?>
<!DOCTYPE svg PUBLIC "-//W3C//DTD SVG 20010904//EN"
 "http://www.w3.org/TR/2001/REC-SVG-20010904/DTD/svg10.dtd">
<svg version="1.0" xmlns="http://www.w3.org/2000/svg"
 width="512.000000pt" height="512.000000pt" viewBox="0 0 512.000000 512.000000"
 preserveAspectRatio="xMidYMid meet">

<g transform="translate(0.000000,512.000000) scale(0.100000,-0.100000)"
fill="#000000" stroke="none">
<path d="M2285 4664 c-630 -85 -1163 -423 -1515 -959 -74 -113 -172 -320 -219
-460 -179 -538 -142 -1118 103 -1620 181 -369 472 -685 822 -891 617 -363
1380 -393 2019 -79 732 359 1185 1088 1185 1905 0 572 -218 1099 -619 1501
-337 337 -753 541 -1234 604 -143 18 -403 18 -542 -1z m1320 -1270 c39 -21 82
-61 74 -68 -35 -32 -959 -679 -998 -698 -68 -35 -162 -38 -229 -8 -30 13 -972
671 -1011 706 -7 7 33 46 64 62 16 8 44 19 60 23 17 4 473 6 1015 6 l985 -2
40 -21z m-1715 -559 c519 -368 532 -375 670 -375 139 0 152 8 664 371 257 181
473 332 481 335 13 5 15 -73 15 -632 0 -397 -4 -653 -10 -675 -16 -56 -51
-101 -100 -129 l-45 -25 -1005 0 -1005 0 -45 25 c-49 28 -84 73 -100 129 -12
45 -14 1311 -1 1311 4 0 221 -151 481 -335z"/>
</g>
</svg>
